<svg xmlns="http://www.w3.org/2000/svg" width="1200" height="630" viewBox="0 0 1200 630">
  <defs>
    <linearGradient id="bg" x1="0%" y1="0%" x2="100%" y2="100%">
      <stop offset="0%" stop-color="#131a2d" />
      <stop offset="50%" stop-color="#1b2742" />
      <stop offset="100%" stop-color="#0f172a" />
    </linearGradient>
    <linearGradient id="glow" x1="0%" y1="0%" x2="100%" y2="0%">
      <stop offset="0%" stop-color="#22c55e" />
      <stop offset="100%" stop-color="#f59e0b" />
    </linearGradient>
  </defs>
  <rect width="1200" height="630" fill="url(#bg)" />
  <circle cx="1000" cy="120" r="88" fill="#f59e0b" opacity="0.18" />
  <circle cx="155" cy="132" r="112" fill="#22c55e" opacity="0.12" />
  <path d="M70 450 220 275l94 79 108-138 155 172 106-136 171 198 110-122 166 195H70Z" fill="#0b1220" opacity="0.95" />
  <path d="M84 456 218 299l96 80 108-139 155 173 106-137 171 199 110-122 152 179" fill="none" stroke="#e2e8f0" stroke-width="9" stroke-linecap="round" stroke-linejoin="round" />
  <path d="M82 510h1036" stroke="url(#glow)" stroke-width="8" stroke-linecap="round" />
  <text x="92" y="164" fill="#22c55e" font-size="34" font-family="Noto Sans, Segoe UI, sans-serif" font-weight="700" letter-spacing="2">WHITE MOUNTAINS GALLERY</text>
  <text x="92" y="258" fill="#ffffff" font-size="74" font-family="Noto Sans, Segoe UI, sans-serif" font-weight="800">White Mountains Pictures</text>
  <text x="92" y="332" fill="#d4dce7" font-size="30" font-family="Noto Sans, Segoe UI, sans-serif">Cloudflare-ready gallery architecture for collections, featured sets, and image detail pages.</text>
</svg>

